<svg width="221" height="124" viewBox="0 0 221 124" fill="none" xmlns="http://www.w3.org/2000/svg">
<path d="M45.1094 49.1877C45.1094 47.9104 45.4297 47.8323 44.9336 47.5823C44.0313 47.1331 43.3477 45.6799 43.8984 44.801C43.9375 44.801 43.7461 44.5159 42.3008 43.7932C41.0664 43.176 40.8594 43.0862 41.3086 41.6174C41.5 40.9807 41.6992 40.2815 41.5 39.6995C40.6947 40.3708 40.0711 41.2339 39.6868 42.2093C39.3025 43.1848 39.1697 44.2413 39.3008 45.2815C39.9784 45.3853 40.6052 45.7028 41.0898 46.1877C41.9336 47.0393 43.043 47.9299 42.2617 48.6956C41.9521 48.9258 41.573 49.043 41.1875 49.0276C41.8086 49.6259 42.5477 50.0881 43.3575 50.3847C44.1673 50.6813 45.03 50.8058 45.8906 50.7502C45.654 50.5628 45.4614 50.3258 45.3264 50.0558C45.1914 49.7858 45.1173 49.4895 45.1094 49.1877Z" fill="url(#paint0_linear_78689_2148)"/>
<path d="M43.7734 43.7186C43.4999 43.328 42.7421 42.8202 43.2695 42.289C43.8906 41.6757 44.3593 42.4999 44.9335 42.2186C45.3632 41.9765 44.7812 40.203 46.2812 40.203C47.1874 40.203 47.2109 40.203 47.4531 39.6835C47.0624 39.6015 46.2812 39.6522 46.2812 39.0311C46.2905 38.895 46.3331 38.7632 46.4053 38.6474C46.4775 38.5316 46.5771 38.4353 46.6953 38.3671C45.57 38.1589 44.4097 38.2519 43.332 38.6366C42.9225 38.795 42.5299 38.9939 42.1601 39.2304C42.8085 40.6132 41.7499 42.3554 41.8945 42.6757C42.0273 42.8124 43.0976 43.2811 43.7734 43.7186Z" fill="url(#paint1_linear_78689_2148)"/>
<path d="M48.625 46.0628C48.4843 45.8011 47.1328 45.9066 46.3945 45.1683C45.9492 44.7191 44.9648 45.0277 44.5703 45.2073C44.2734 45.598 44.7421 46.6136 45.2851 46.887C46.7578 47.6214 45.3281 48.8402 46.1757 49.9183C46.2187 49.1683 47 48.7816 47.6679 48.4495C48.2343 48.1722 48.625 46.8441 48.625 46.0628Z" fill="url(#paint2_linear_78689_2148)"/>
<path d="M40.5352 46.731C40.2393 46.4324 39.8702 46.2169 39.4648 46.106C39.6727 46.9009 40.038 47.6461 40.5391 48.2974C42.0156 48.1177 42.2266 48.4067 40.5352 46.731Z" fill="url(#paint3_linear_78689_2148)"/>
<path d="M50.7852 44.4573C49.8906 44.2151 48.2305 43.676 48.1211 42.7698C48.0469 42.0823 48.7852 41.7346 49.0586 41.2073C49.2773 40.7659 49.7617 40.6213 50.5078 40.7815C49.776 39.7905 48.7656 39.0398 47.6055 38.6252C47.519 38.7176 47.4249 38.8025 47.3242 38.8792C47.4985 38.8697 47.6724 38.9027 47.831 38.9756C47.9896 39.0484 48.128 39.1588 48.2344 39.2971C48.2885 39.4055 48.314 39.5259 48.3086 39.6469C48.3031 39.7679 48.2668 39.8855 48.2031 39.9885C47.7148 40.9495 47.5352 40.9846 46.2813 40.9846C46.0352 40.9846 45.9805 41.0042 45.9219 41.6135C45.8789 42.0393 45.8242 42.6252 45.2852 42.8948C45.1162 42.9838 44.9302 43.0357 44.7396 43.0472C44.549 43.0586 44.3581 43.0293 44.1797 42.9612C44.5302 43.3248 44.7406 43.8009 44.7734 44.3049C45.3906 44.1213 46.3359 43.9963 46.9492 44.6135C47.6445 45.3088 49.4063 44.8557 49.4063 46.0627C49.4063 46.8948 49.0156 48.6565 48.0195 49.1448C46.4258 49.969 47.0625 49.969 47.125 50.5315C48.3141 50.2107 49.382 49.5456 50.1944 48.6199C51.0068 47.6942 51.5276 46.5491 51.6914 45.3284C51.1367 44.5354 51.7188 44.6995 50.7852 44.4573Z" fill="url(#paint4_linear_78689_2148)"/>
<path d="M51.1328 41.7893C50.7595 41.6316 50.3644 41.5314 49.961 41.4924C49.6172 41.4924 49.9141 41.4924 49.1993 42.2737C49.0743 42.4026 48.8711 42.6213 48.8789 42.6956C48.8789 42.6956 48.8789 42.8088 49.211 43.0198C49.764 43.3456 50.3652 43.5816 50.9922 43.719C51.2461 43.7669 51.4929 43.847 51.7266 43.9573C51.6613 43.2047 51.4602 42.4701 51.1328 41.7893Z" fill="url(#paint5_linear_78689_2148)"/>
<path d="M55.332 44.1094C55.2305 44.1094 55.5234 44.1094 54.0859 44.1094C54.0859 44.0704 54.1172 44.0899 53.3047 44.0899C53.2011 44.0899 53.1017 44.0487 53.0285 43.9755C52.9552 43.9022 52.9141 43.8029 52.9141 43.6993C52.9141 43.5957 52.9552 43.4963 53.0285 43.423C53.1017 43.3498 53.2011 43.3086 53.3047 43.3086H54.0039C53.8703 42.3442 53.5717 41.41 53.1211 40.5469C53.1602 40.5235 54.1328 39.9766 54.2187 39.8907C54.3689 39.9772 54.5437 40.0113 54.7154 39.9876C54.8871 39.964 55.046 39.8839 55.1672 39.7599C55.2884 39.636 55.365 39.4753 55.3848 39.3031C55.4047 39.1309 55.3667 38.957 55.2768 38.8088C55.187 38.6605 55.0504 38.5464 54.8886 38.4843C54.7267 38.4222 54.5488 38.4157 54.3829 38.4658C54.217 38.5159 54.0724 38.6197 53.972 38.761C53.8715 38.9023 53.8209 39.0729 53.8281 39.2461C53.7031 39.2813 52.75 39.8477 52.7109 39.8711C52.0508 38.9922 51.5742 38.2032 50.1055 37.2618C50.7891 36.0899 50.6953 36.25 50.7227 36.1485C50.8636 36.1525 51.003 36.1184 51.1261 36.0496C51.2492 35.9808 51.3514 35.88 51.4219 35.7579C51.5153 35.5793 51.5361 35.3716 51.4799 35.1781C51.4238 34.9845 51.295 34.8202 51.1206 34.7193C50.9461 34.6185 50.7395 34.589 50.5438 34.6369C50.348 34.6848 50.1784 34.8066 50.0703 34.9766C50.0017 35.0954 49.9656 35.2301 49.9656 35.3672C49.9656 35.5044 50.0017 35.6391 50.0703 35.7579C49.8984 35.9336 49.4531 36.8711 49.4141 36.8555C49.0586 37.4727 49.0234 37.6563 48.7266 37.6563C48.6579 37.6566 48.5903 37.6387 48.5307 37.6045C48.4711 37.5704 48.4216 37.5211 48.3871 37.4617C48.3526 37.4022 48.3344 37.3348 48.3344 37.2661C48.3343 37.1974 48.3524 37.1298 48.3867 37.0704L48.6992 36.5274C47.8049 36.163 46.8552 35.9529 45.8906 35.9063C45.8906 35.8399 45.8906 34.7774 45.8906 34.6602C46.1532 34.5705 46.3755 34.3905 46.5178 34.1522C46.6601 33.914 46.7132 33.633 46.6677 33.3592C46.6223 33.0855 46.4811 32.8367 46.2694 32.6573C46.0577 32.4779 45.7892 32.3794 45.5117 32.3794C45.2342 32.3794 44.9657 32.4779 44.754 32.6573C44.5423 32.8367 44.4012 33.0855 44.3557 33.3592C44.3102 33.633 44.3634 33.914 44.5057 34.1522C44.648 34.3905 44.8702 34.5705 45.1328 34.6602C45.1328 34.7618 45.1328 35.7266 45.1328 35.9063C43.8895 35.9604 42.6733 36.2871 41.5703 36.8633C41.3808 36.4803 41.1628 36.1121 40.918 35.7618C40.9865 35.643 41.0226 35.5083 41.0226 35.3711C41.0226 35.234 40.9865 35.0993 40.918 34.9805C40.8099 34.8105 40.6402 34.6888 40.4445 34.6408C40.2488 34.5929 40.0421 34.6224 39.8677 34.7232C39.6932 34.8241 39.5645 34.9884 39.5083 35.182C39.4522 35.3755 39.473 35.5832 39.5664 35.7618C39.6325 35.8765 39.7267 35.9725 39.8401 36.0409C39.9536 36.1092 40.0825 36.1476 40.2148 36.1524C40.2695 36.1524 41.2617 37.9414 41.2695 37.9414C41.3213 38.0316 41.3352 38.1386 41.3081 38.239C41.281 38.3393 41.2151 38.4248 41.125 38.4766C41.0349 38.5284 40.9278 38.5423 40.8275 38.5152C40.7271 38.4881 40.6416 38.4222 40.5898 38.3321L40.2422 37.7266C39.4762 38.3322 38.8162 39.0609 38.2891 39.8829C38.25 39.8594 37.2969 39.293 37.1719 39.2579C37.1764 39.0841 37.1229 38.9138 37.0198 38.7738C36.9167 38.6339 36.7699 38.5324 36.6026 38.4853C36.4352 38.4382 36.257 38.4482 36.096 38.5138C35.9351 38.5794 35.8006 38.6968 35.7138 38.8475C35.6271 38.9981 35.5931 39.1734 35.6172 39.3455C35.6413 39.5177 35.7221 39.6769 35.8468 39.7979C35.9715 39.919 36.1331 39.995 36.3059 40.0139C36.4786 40.0328 36.6528 39.9936 36.8008 39.9024C36.8906 39.9922 37.8594 40.5352 37.8984 40.5586C37.3133 41.656 36.9747 42.8677 36.9062 44.1094C36.4912 44.0879 36.0752 44.0879 35.6602 44.1094C35.568 43.8488 35.3867 43.6291 35.1482 43.4892C34.9098 43.3494 34.6296 43.2983 34.3571 43.345C34.0847 43.3918 33.8375 43.5333 33.6593 43.7447C33.4811 43.9561 33.3834 44.2236 33.3834 44.5C33.3834 44.7765 33.4811 45.044 33.6593 45.2554C33.8375 45.4667 34.0847 45.6083 34.3571 45.655C34.6296 45.7018 34.9098 45.6507 35.1482 45.5108C35.3867 45.371 35.568 45.1513 35.6602 44.8907C35.6992 44.8516 35.4258 44.8907 37.6875 44.8907C37.7911 44.8907 37.8905 44.9318 37.9637 45.0051C38.037 45.0783 38.0781 45.1777 38.0781 45.2813C38.0781 45.3849 38.037 45.4842 37.9637 45.5575C37.8905 45.6308 37.7911 45.6719 37.6875 45.6719H36.9883C37.1187 46.6445 37.4174 47.587 37.8711 48.4571C37.6641 48.5704 36.8594 49.0274 36.7734 49.1094C36.6258 49.0184 36.452 48.979 36.2795 48.9977C36.107 49.0163 35.9456 49.0918 35.8208 49.2123C35.696 49.3328 35.6148 49.4914 35.5901 49.6631C35.5654 49.8348 35.5985 50.0099 35.6843 50.1607C35.7701 50.3115 35.9036 50.4294 36.0639 50.496C36.2241 50.5625 36.4019 50.5738 36.5693 50.528C36.7366 50.4823 36.884 50.3822 36.9882 50.2434C37.0923 50.1047 37.1473 49.9352 37.1445 49.7618C37.2305 49.7383 38.2148 49.1563 38.2617 49.1289C38.9288 50.1789 39.8182 51.0697 40.8672 51.7383C40.1836 52.9102 40.2773 52.75 40.25 52.8516C40.109 52.8476 39.9696 52.8817 39.8465 52.9505C39.7234 53.0193 39.6212 53.1201 39.5508 53.2422C39.4574 53.4208 39.4366 53.6285 39.4927 53.822C39.5489 54.0156 39.6776 54.1799 39.8521 54.2807C40.0265 54.3816 40.2332 54.4111 40.4289 54.3632C40.6246 54.3152 40.7942 54.1935 40.9023 54.0235C40.9655 53.9129 41.0007 53.7885 41.0047 53.6612C41.0088 53.5338 40.9817 53.4075 40.9258 53.293C40.8906 53.211 40.8047 53.4297 41.9492 51.4414C42.0033 51.3564 42.0881 51.2956 42.1859 51.2716C42.2838 51.2476 42.3871 51.2624 42.4744 51.3128C42.5616 51.3632 42.626 51.4454 42.654 51.5422C42.6821 51.6389 42.6717 51.7428 42.625 51.8321L42.2617 52.461C43.167 52.8355 44.1306 53.0496 45.1094 53.0938C45.1094 53.1602 45.1094 54.2071 45.1094 54.3399C44.8468 54.4296 44.6245 54.6096 44.4822 54.8479C44.3399 55.0861 44.2868 55.3671 44.3322 55.6409C44.3777 55.9146 44.5189 56.1633 44.7306 56.3428C44.9423 56.5222 45.2108 56.6207 45.4883 56.6207C45.7658 56.6207 46.0343 56.5222 46.246 56.3428C46.4577 56.1633 46.5988 55.9146 46.6443 55.6409C46.6898 55.3671 46.6366 55.0861 46.4943 54.8479C46.352 54.6096 46.1298 54.4296 45.8672 54.3399C45.8672 54.2383 45.8672 53.2735 45.8672 53.0938C47.1105 53.0397 48.3267 52.7129 49.4297 52.1368C49.6192 52.5198 49.8372 52.888 50.082 53.2383C50.0135 53.3571 49.9774 53.4918 49.9774 53.6289C49.9774 53.7661 50.0135 53.9008 50.082 54.0196C50.1901 54.1896 50.3598 54.3113 50.5555 54.3593C50.7512 54.4072 50.9579 54.3777 51.1323 54.2768C51.3068 54.176 51.4355 54.0116 51.4917 53.8181C51.5478 53.6246 51.527 53.4169 51.4336 53.2383C51.3638 53.1174 51.2628 53.0173 51.1412 52.9486C51.0196 52.8799 50.8818 52.8451 50.7422 52.8477C50.7227 52.7696 49.7422 51.086 49.7187 51.0469C49.6669 50.9568 49.6531 50.8498 49.6802 50.7494C49.7073 50.649 49.7731 50.5636 49.8633 50.5118C49.9534 50.46 50.0604 50.4461 50.1608 50.4732C50.2612 50.5003 50.3466 50.5662 50.3984 50.6563L50.7578 51.2813C51.5238 50.6757 52.1838 49.947 52.7109 49.125C52.75 49.1485 53.7422 49.7344 53.8281 49.7579C53.8227 49.9308 53.8748 50.1006 53.9764 50.2407C54.0779 50.3808 54.223 50.4832 54.389 50.532C54.555 50.5807 54.7325 50.5729 54.8936 50.5099C55.0547 50.4468 55.1904 50.3321 55.2793 50.1837C55.3681 50.0352 55.4052 49.8615 55.3847 49.6897C55.3642 49.5179 55.2873 49.3578 55.166 49.2345C55.0446 49.1111 54.8858 49.0315 54.7144 49.0082C54.5429 48.9849 54.3686 49.0191 54.2187 49.1055C54.125 49.0157 53.1602 48.4727 53.1211 48.4532C53.6996 47.3502 54.0315 46.1346 54.0937 44.8907C55.5312 44.8907 55.2383 44.8907 55.3398 44.8907C55.4296 45.1533 55.6096 45.3755 55.8478 45.5178C56.0861 45.6601 56.3671 45.7133 56.6408 45.6678C56.9146 45.6223 57.1633 45.4812 57.3427 45.2695C57.5222 45.0578 57.6206 44.7893 57.6206 44.5118C57.6206 44.2343 57.5222 43.9658 57.3427 43.7541C57.1633 43.5424 56.9146 43.4012 56.6408 43.3557C56.3671 43.3103 56.0861 43.3634 55.8478 43.5057C55.6096 43.648 55.4296 43.8703 55.3398 44.1329L55.332 44.1094ZM52.4922 45.2813C51.5625 51.7813 43.8398 53.586 40.0703 48.9844C36.6484 44.8789 39.0469 38.4375 44.3672 37.586C45.4363 37.4112 46.5313 37.4858 47.5668 37.8039C48.6023 38.1221 49.5502 38.6752 50.3367 39.4201C51.1232 40.165 51.727 41.0816 52.1009 42.0983C52.4748 43.115 52.6087 44.2043 52.4922 45.2813Z" fill="url(#paint6_linear_78689_2148)"/>
<path d="M77.6 39.04V53H74.8V43.92L71.06 53H68.94L65.18 43.92V53H62.38V39.04H65.56L70 49.42L74.44 39.04H77.6ZM90.6683 47.22C90.6683 47.62 90.6416 47.98 90.5883 48.3H82.4883C82.5549 49.1 82.8349 49.7267 83.3283 50.18C83.8216 50.6333 84.4283 50.86 85.1483 50.86C86.1883 50.86 86.9283 50.4133 87.3683 49.52H90.3883C90.0683 50.5867 89.4549 51.4667 88.5483 52.16C87.6416 52.84 86.5283 53.18 85.2083 53.18C84.1416 53.18 83.1816 52.9467 82.3283 52.48C81.4883 52 80.8283 51.3267 80.3483 50.46C79.8816 49.5933 79.6483 48.5933 79.6483 47.46C79.6483 46.3133 79.8816 45.3067 80.3483 44.44C80.8149 43.5733 81.4683 42.9067 82.3083 42.44C83.1483 41.9733 84.1149 41.74 85.2083 41.74C86.2616 41.74 87.2016 41.9667 88.0283 42.42C88.8683 42.8733 89.5149 43.52 89.9683 44.36C90.4349 45.1867 90.6683 46.14 90.6683 47.22ZM87.7683 46.42C87.7549 45.7 87.4949 45.1267 86.9883 44.7C86.4816 44.26 85.8616 44.04 85.1283 44.04C84.4349 44.04 83.8483 44.2533 83.3683 44.68C82.9016 45.0933 82.6149 45.6733 82.5083 46.42H87.7683ZM91.992 47.42C91.992 46.3 92.212 45.3067 92.652 44.44C93.1054 43.5733 93.7187 42.9067 94.492 42.44C95.2654 41.9733 96.1254 41.74 97.072 41.74C97.792 41.74 98.4787 41.9 99.132 42.22C99.7854 42.5267 100.305 42.94 100.692 43.46V38.2H103.532V53H100.692V51.36C100.345 51.9067 99.8587 52.3467 99.232 52.68C98.6054 53.0133 97.8787 53.18 97.052 53.18C96.1187 53.18 95.2654 52.94 94.492 52.46C93.7187 51.98 93.1054 51.3067 92.652 50.44C92.212 49.56 91.992 48.5533 91.992 47.42ZM100.712 47.46C100.712 46.78 100.579 46.2 100.312 45.72C100.045 45.2267 99.6854 44.8533 99.232 44.6C98.7787 44.3333 98.292 44.2 97.772 44.2C97.252 44.2 96.772 44.3267 96.332 44.58C95.892 44.8333 95.532 45.2067 95.252 45.7C94.9854 46.18 94.852 46.7533 94.852 47.42C94.852 48.0867 94.9854 48.6733 95.252 49.18C95.532 49.6733 95.892 50.0533 96.332 50.32C96.7854 50.5867 97.2654 50.72 97.772 50.72C98.292 50.72 98.7787 50.5933 99.232 50.34C99.6854 50.0733 100.045 49.7 100.312 49.22C100.579 48.7267 100.712 48.14 100.712 47.46ZM107.687 40.6C107.193 40.6 106.78 40.4467 106.447 40.14C106.127 39.82 105.967 39.4267 105.967 38.96C105.967 38.4933 106.127 38.1067 106.447 37.8C106.78 37.48 107.193 37.32 107.687 37.32C108.18 37.32 108.587 37.48 108.907 37.8C109.24 38.1067 109.407 38.4933 109.407 38.96C109.407 39.4267 109.24 39.82 108.907 40.14C108.587 40.4467 108.18 40.6 107.687 40.6ZM109.067 41.92V53H106.267V41.92H109.067ZM111.153 46C111.153 44.6267 111.46 43.4 112.073 42.32C112.7 41.2267 113.546 40.38 114.613 39.78C115.693 39.1667 116.9 38.86 118.233 38.86C119.793 38.86 121.16 39.26 122.333 40.06C123.506 40.86 124.326 41.9667 124.793 43.38H121.573C121.253 42.7133 120.8 42.2133 120.213 41.88C119.64 41.5467 118.973 41.38 118.213 41.38C117.4 41.38 116.673 41.5733 116.033 41.96C115.406 42.3333 114.913 42.8667 114.553 43.56C114.206 44.2533 114.033 45.0667 114.033 46C114.033 46.92 114.206 47.7333 114.553 48.44C114.913 49.1333 115.406 49.6733 116.033 50.06C116.673 50.4333 117.4 50.62 118.213 50.62C118.973 50.62 119.64 50.4533 120.213 50.12C120.8 49.7733 121.253 49.2667 121.573 48.6H124.793C124.326 50.0267 123.506 51.14 122.333 51.94C121.173 52.7267 119.806 53.12 118.233 53.12C116.9 53.12 115.693 52.82 114.613 52.22C113.546 51.6067 112.7 50.76 112.073 49.68C111.46 48.6 111.153 47.3733 111.153 46ZM126.465 47.42C126.465 46.3 126.685 45.3067 127.125 44.44C127.578 43.5733 128.185 42.9067 128.945 42.44C129.718 41.9733 130.578 41.74 131.525 41.74C132.351 41.74 133.071 41.9067 133.685 42.24C134.311 42.5733 134.811 42.9933 135.185 43.5V41.92H138.005V53H135.185V51.38C134.825 51.9 134.325 52.3333 133.685 52.68C133.058 53.0133 132.331 53.18 131.505 53.18C130.571 53.18 129.718 52.94 128.945 52.46C128.185 51.98 127.578 51.3067 127.125 50.44C126.685 49.56 126.465 48.5533 126.465 47.42ZM135.185 47.46C135.185 46.78 135.051 46.2 134.785 45.72C134.518 45.2267 134.158 44.8533 133.705 44.6C133.251 44.3333 132.765 44.2 132.245 44.2C131.725 44.2 131.245 44.3267 130.805 44.58C130.365 44.8333 130.005 45.2067 129.725 45.7C129.458 46.18 129.325 46.7533 129.325 47.42C129.325 48.0867 129.458 48.6733 129.725 49.18C130.005 49.6733 130.365 50.0533 130.805 50.32C131.258 50.5867 131.738 50.72 132.245 50.72C132.765 50.72 133.251 50.5933 133.705 50.34C134.158 50.0733 134.518 49.7 134.785 49.22C135.051 48.7267 135.185 48.14 135.185 47.46ZM143.539 43.64C143.899 43.0533 144.366 42.5933 144.939 42.26C145.526 41.9267 146.193 41.76 146.939 41.76V44.7H146.199C145.319 44.7 144.653 44.9067 144.199 45.32C143.759 45.7333 143.539 46.4533 143.539 47.48V53H140.739V41.92H143.539V43.64ZM159.125 47.22C159.125 47.62 159.099 47.98 159.045 48.3H150.945C151.012 49.1 151.292 49.7267 151.785 50.18C152.279 50.6333 152.885 50.86 153.605 50.86C154.645 50.86 155.385 50.4133 155.825 49.52H158.845C158.525 50.5867 157.912 51.4667 157.005 52.16C156.099 52.84 154.985 53.18 153.665 53.18C152.599 53.18 151.639 52.9467 150.785 52.48C149.945 52 149.285 51.3267 148.805 50.46C148.339 49.5933 148.105 48.5933 148.105 47.46C148.105 46.3133 148.339 45.3067 148.805 44.44C149.272 43.5733 149.925 42.9067 150.765 42.44C151.605 41.9733 152.572 41.74 153.665 41.74C154.719 41.74 155.659 41.9667 156.485 42.42C157.325 42.8733 157.972 43.52 158.425 44.36C158.892 45.1867 159.125 46.14 159.125 47.22ZM156.225 46.42C156.212 45.7 155.952 45.1267 155.445 44.7C154.939 44.26 154.319 44.04 153.585 44.04C152.892 44.04 152.305 44.2533 151.825 44.68C151.359 45.0933 151.072 45.6733 150.965 46.42H156.225Z" fill="black"/>
<g filter="url(#filter0_d_78689_2148)">
<rect width="99" height="3" rx="1.5" transform="matrix(-1 0 0 1 160 56)" fill="url(#paint7_linear_78689_2148)"/>
</g>
<defs>
<filter id="filter0_d_78689_2148" x="0" y="-1" width="221" height="125" filterUnits="userSpaceOnUse" color-interpolation-filters="sRGB">
<feFlood flood-opacity="0" result="BackgroundImageFix"/>
<feColorMatrix in="SourceAlpha" type="matrix" values="0 0 0 0 0 0 0 0 0 0 0 0 0 0 0 0 0 0 127 0" result="hardAlpha"/>
<feOffset dy="4"/>
<feGaussianBlur stdDeviation="30.5"/>
<feColorMatrix type="matrix" values="0 0 0 0 0 0 0 0 0 0.627451 0 0 0 0 0.690196 0 0 0 0.4 0"/>
<feBlend mode="normal" in2="BackgroundImageFix" result="effect1_dropShadow_78689_2148"/>
<feBlend mode="normal" in="SourceGraphic" in2="effect1_dropShadow_78689_2148" result="shape"/>
</filter>
<linearGradient id="paint0_linear_78689_2148" x1="39.2518" y1="43.3871" x2="45.8906" y2="43.3871" gradientUnits="userSpaceOnUse">
<stop stop-color="#00A0B0"/>
<stop offset="1" stop-color="#00A0B0" stop-opacity="0.75"/>
</linearGradient>
<linearGradient id="paint1_linear_78689_2148" x1="41.8807" y1="40.0786" x2="47.4531" y2="40.0786" gradientUnits="userSpaceOnUse">
<stop stop-color="#00A0B0"/>
<stop offset="1" stop-color="#00A0B0" stop-opacity="0.75"/>
</linearGradient>
<linearGradient id="paint2_linear_78689_2148" x1="44.4781" y1="46.5965" x2="48.625" y2="46.5965" gradientUnits="userSpaceOnUse">
<stop stop-color="#00A0B0"/>
<stop offset="1" stop-color="#00A0B0" stop-opacity="0.75"/>
</linearGradient>
<linearGradient id="paint3_linear_78689_2148" x1="39.4648" y1="46.8364" x2="41.7264" y2="46.8364" gradientUnits="userSpaceOnUse">
<stop stop-color="#00A0B0"/>
<stop offset="1" stop-color="#00A0B0" stop-opacity="0.75"/>
</linearGradient>
<linearGradient id="paint4_linear_78689_2148" x1="44.1797" y1="42.5937" x2="51.6914" y2="42.5937" gradientUnits="userSpaceOnUse">
<stop stop-color="#00A0B0"/>
<stop offset="1" stop-color="#00A0B0" stop-opacity="0.75"/>
</linearGradient>
<linearGradient id="paint5_linear_78689_2148" x1="48.8787" y1="42.314" x2="51.7266" y2="42.314" gradientUnits="userSpaceOnUse">
<stop stop-color="#00A0B0"/>
<stop offset="1" stop-color="#00A0B0" stop-opacity="0.75"/>
</linearGradient>
<linearGradient id="paint6_linear_78689_2148" x1="33.3834" y1="40.4592" x2="57.6206" y2="40.4592" gradientUnits="userSpaceOnUse">
<stop stop-color="#00A0B0"/>
<stop offset="1" stop-color="#00A0B0" stop-opacity="0.75"/>
</linearGradient>
<linearGradient id="paint7_linear_78689_2148" x1="0" y1="0.999926" x2="99" y2="0.999971" gradientUnits="userSpaceOnUse">
<stop stop-color="#00A0B0"/>
<stop offset="1" stop-color="#00A0B0" stop-opacity="0.75"/>
</linearGradient>
</defs>
</svg>
