<svg width="25" height="25" viewBox="0 0 25 25" fill="none" xmlns="http://www.w3.org/2000/svg">
<path d="M12.1093 17.1875C12.1093 15.9102 12.4296 15.8321 11.9335 15.5821C11.0312 15.1328 10.3476 13.6797 10.8984 12.8008C10.9374 12.8008 10.746 12.5157 9.30072 11.793C8.06635 11.1758 7.85932 11.086 8.30853 9.61722C8.49994 8.9805 8.69916 8.28128 8.49994 7.69925C7.69459 8.37055 7.07106 9.23366 6.68674 10.2091C6.30243 11.1846 6.16968 12.2411 6.30072 13.2813C6.97837 13.3851 7.60516 13.7026 8.08978 14.1875C8.93353 15.0391 10.0429 15.9297 9.26166 16.6953C8.95207 16.9256 8.57294 17.0428 8.18744 17.0274C8.80856 17.6257 9.54761 18.0879 10.3574 18.3845C11.1672 18.6811 12.03 18.8056 12.8906 18.75C12.6539 18.5626 12.4613 18.3256 12.3263 18.0556C12.1914 17.7856 12.1173 17.4893 12.1093 17.1875Z" fill="url(#paint0_linear_78790_79)"/>
<path d="M10.7733 11.7186C10.4998 11.3279 9.74201 10.8201 10.2693 10.2889C10.8904 9.67558 11.3592 10.4998 11.9334 10.2186C12.3631 9.97637 11.7811 8.20293 13.2811 8.20293C14.1873 8.20293 14.2108 8.20293 14.4529 7.6834C14.0623 7.60137 13.2811 7.65215 13.2811 7.03105C13.2903 6.8949 13.3329 6.76311 13.4052 6.6473C13.4774 6.5315 13.5769 6.43523 13.6951 6.36699C12.5699 6.15885 11.4096 6.25184 10.3318 6.63652C9.9224 6.79486 9.52982 6.99377 9.15997 7.23027C9.80841 8.61308 8.74982 10.3553 8.89435 10.6756C9.02716 10.8123 10.0975 11.2811 10.7733 11.7186Z" fill="url(#paint1_linear_78790_79)"/>
<path d="M15.6249 14.0627C15.4843 13.8009 14.1327 13.9064 13.3944 13.1681C12.9491 12.7189 11.9647 13.0275 11.5702 13.2072C11.2733 13.5978 11.7421 14.6134 12.2851 14.8869C13.7577 15.6212 12.328 16.84 13.1757 17.9181C13.2186 17.1681 13.9999 16.7814 14.6679 16.4494C15.2343 16.172 15.6249 14.8439 15.6249 14.0627Z" fill="url(#paint2_linear_78790_79)"/>
<path d="M7.53516 14.7307C7.23931 14.4322 6.87021 14.2167 6.46484 14.1057C6.67269 14.9007 7.03798 15.6459 7.53906 16.2971C9.01563 16.1174 9.22656 16.4065 7.53516 14.7307Z" fill="url(#paint3_linear_78790_79)"/>
<path d="M17.7852 12.4571C16.8906 12.2149 15.2305 11.6758 15.1211 10.7696C15.0469 10.0821 15.7852 9.73441 16.0586 9.20706C16.2773 8.76566 16.7617 8.62112 17.5078 8.78128C16.776 7.79027 15.7656 7.03963 14.6055 6.62503C14.519 6.7174 14.4249 6.80233 14.3242 6.87894C14.4985 6.86944 14.6724 6.90253 14.831 6.97536C14.9896 7.04819 15.128 7.15855 15.2344 7.29691C15.2885 7.40527 15.314 7.52566 15.3086 7.64667C15.3031 7.76767 15.2668 7.88527 15.2031 7.98831C14.7148 8.94925 14.5352 8.98441 13.2813 8.98441C13.0352 8.98441 12.9805 9.00394 12.9219 9.61331C12.8789 10.0391 12.8242 10.625 12.2852 10.8946C12.1162 10.9835 11.9302 11.0355 11.7396 11.0469C11.549 11.0584 11.3581 11.0291 11.1797 10.961C11.5302 11.3246 11.7406 11.8007 11.7734 12.3047C12.3906 12.1211 13.3359 11.9961 13.9492 12.6133C14.6445 13.3086 16.4063 12.8555 16.4063 14.0625C16.4063 14.8946 16.0156 16.6563 15.0195 17.1446C13.4258 17.9688 14.0625 17.9688 14.125 18.5313C15.3141 18.2104 16.382 17.5454 17.1944 16.6197C18.0068 15.694 18.5276 14.5489 18.6914 13.3282C18.1367 12.5352 18.7188 12.6992 17.7852 12.4571Z" fill="url(#paint4_linear_78790_79)"/>
<path d="M18.1328 9.78931C17.7595 9.63155 17.3643 9.53145 16.9609 9.49243C16.6172 9.49243 16.914 9.49243 16.1992 10.2737C16.0742 10.4026 15.8711 10.6213 15.8789 10.6956C15.8789 10.6956 15.8789 10.8088 16.2109 11.0198C16.7639 11.3456 17.3652 11.5816 17.9922 11.719C18.2461 11.7669 18.4929 11.847 18.7265 11.9573C18.6613 11.2047 18.4601 10.4701 18.1328 9.78931Z" fill="url(#paint5_linear_78790_79)"/>
<path d="M22.3319 12.1093C22.2303 12.1093 22.5233 12.1093 21.0858 12.1093C21.0858 12.0702 21.1171 12.0898 20.3046 12.0898C20.201 12.0898 20.1016 12.0486 20.0283 11.9754C19.9551 11.9021 19.9139 11.8027 19.9139 11.6991C19.9139 11.5955 19.9551 11.4962 20.0283 11.4229C20.1016 11.3497 20.201 11.3085 20.3046 11.3085H21.0038C20.8702 10.3441 20.5716 9.40986 20.121 8.54679C20.16 8.52336 21.1327 7.97648 21.2186 7.89054C21.3688 7.97706 21.5435 8.01117 21.7152 7.98751C21.887 7.96384 22.0459 7.88374 22.1671 7.75982C22.2883 7.63589 22.3649 7.47518 22.3847 7.30299C22.4045 7.13079 22.3665 6.95689 22.2767 6.80865C22.1869 6.66041 22.0503 6.54626 21.8884 6.48417C21.7266 6.42208 21.5487 6.41557 21.3828 6.46566C21.2168 6.51576 21.0723 6.61962 20.9718 6.76089C20.8714 6.90217 20.8208 7.07283 20.828 7.24601C20.703 7.28117 19.7499 7.84758 19.7108 7.87101C19.0507 6.99211 18.5741 6.20304 17.1053 5.26164C17.7889 4.08976 17.6952 4.24992 17.7225 4.14836C17.8635 4.15241 18.0029 4.11824 18.126 4.04946C18.2491 3.98069 18.3513 3.87988 18.4217 3.75773C18.5152 3.57918 18.536 3.37145 18.4798 3.17793C18.4237 2.98441 18.2949 2.82006 18.1205 2.71922C17.946 2.61838 17.7393 2.58885 17.5436 2.63679C17.3479 2.68472 17.1783 2.80643 17.0702 2.97648C17.0016 3.09525 16.9655 3.22997 16.9655 3.36711C16.9655 3.50424 17.0016 3.63897 17.0702 3.75773C16.8983 3.93351 16.453 4.87101 16.4139 4.85539C16.0585 5.47258 16.0233 5.65617 15.7264 5.65617C15.6577 5.65644 15.5902 5.63859 15.5306 5.60442C15.471 5.57025 15.4214 5.52096 15.387 5.46153C15.3525 5.4021 15.3343 5.33463 15.3343 5.26593C15.3342 5.19723 15.3522 5.12973 15.3866 5.07023L15.6991 4.52726C14.8048 4.16283 13.8551 3.95282 12.8905 3.90617C12.8905 3.83976 12.8905 2.77726 12.8905 2.66008C13.1531 2.57035 13.3753 2.39034 13.5176 2.1521C13.66 1.91386 13.7131 1.63285 13.6676 1.3591C13.6221 1.08534 13.481 0.836611 13.2693 0.657182C13.0576 0.477753 12.7891 0.379272 12.5116 0.379272C12.2341 0.379272 11.9656 0.477753 11.7539 0.657182C11.5422 0.836611 11.401 1.08534 11.3556 1.3591C11.3101 1.63285 11.3632 1.91386 11.5055 2.1521C11.6478 2.39034 11.8701 2.57035 12.1327 2.66008C12.1327 2.76164 12.1327 3.72648 12.1327 3.90617C10.8894 3.9603 9.67322 4.28702 8.57019 4.8632C8.3807 4.48016 8.16264 4.11193 7.91784 3.76164C7.98641 3.64287 8.02251 3.50815 8.02251 3.37101C8.02251 3.23387 7.98641 3.09915 7.91784 2.98039C7.80974 2.81034 7.64012 2.68863 7.4444 2.64069C7.24869 2.59275 7.04202 2.62229 6.86756 2.72313C6.69311 2.82397 6.56436 2.98831 6.50822 3.18184C6.45208 3.37536 6.47288 3.58309 6.56628 3.76164C6.6324 3.87637 6.7266 3.97241 6.84003 4.04073C6.95345 4.10906 7.08239 4.14744 7.21472 4.15226C7.2694 4.15226 8.26159 5.94133 8.2694 5.94133C8.32121 6.03146 8.33508 6.13848 8.30797 6.23884C8.28087 6.3392 8.21501 6.42468 8.12487 6.47648C8.03474 6.52828 7.92772 6.54216 7.82736 6.51505C7.727 6.48795 7.64152 6.42208 7.58972 6.33195L7.24206 5.72648C6.4761 6.33211 5.81608 7.06078 5.28894 7.88273C5.24987 7.85929 4.29675 7.29289 4.17175 7.25773C4.17632 7.08397 4.12282 6.91365 4.0197 6.77372C3.91659 6.63378 3.76975 6.53224 3.60244 6.48514C3.43512 6.43805 3.25687 6.4481 3.0959 6.5137C2.93494 6.57931 2.80045 6.69672 2.71372 6.84736C2.62699 6.99799 2.59297 7.17325 2.61705 7.3454C2.64113 7.51754 2.72193 7.67674 2.84666 7.7978C2.9714 7.91886 3.13294 7.99486 3.30573 8.01378C3.47852 8.0327 3.65268 7.99346 3.80065 7.90226C3.8905 7.99211 4.85925 8.53508 4.89831 8.55851C4.3132 9.65583 3.9746 10.8676 3.90612 12.1093C3.49104 12.0878 3.07512 12.0878 2.66003 12.1093C2.56788 11.8487 2.38657 11.629 2.14812 11.4891C1.90968 11.3493 1.62947 11.2982 1.35701 11.3449C1.08455 11.3917 0.837388 11.5332 0.659208 11.7446C0.481027 11.9559 0.383301 12.2235 0.383301 12.4999C0.383301 12.7764 0.481027 13.0439 0.659208 13.2553C0.837388 13.4666 1.08455 13.6082 1.35701 13.6549C1.62947 13.7017 1.90968 13.6506 2.14812 13.5107C2.38657 13.3708 2.56788 13.1512 2.66003 12.8905C2.69909 12.8515 2.42566 12.8905 4.68737 12.8905C4.79097 12.8905 4.89033 12.9317 4.96359 13.005C5.03684 13.0782 5.078 13.1776 5.078 13.2812C5.078 13.3848 5.03684 13.4841 4.96359 13.5574C4.89033 13.6306 4.79097 13.6718 4.68737 13.6718H3.98816C4.11854 14.6444 4.41727 15.5868 4.87097 16.457C4.66394 16.5702 3.85925 17.0273 3.77331 17.1093C3.62564 17.0182 3.45186 16.9789 3.27937 16.9975C3.10689 17.0162 2.94551 17.0917 2.82068 17.2122C2.69586 17.3327 2.61469 17.4913 2.58997 17.663C2.56526 17.8347 2.59841 18.0098 2.68419 18.1606C2.76998 18.3114 2.90351 18.4293 3.06375 18.4958C3.22398 18.5623 3.4018 18.5736 3.56915 18.5279C3.73651 18.4822 3.88389 18.3821 3.98804 18.2433C4.0922 18.1046 4.14721 17.9351 4.1444 17.7616C4.23034 17.7382 5.21472 17.1562 5.26159 17.1288C5.92868 18.1788 6.8181 19.0695 7.86706 19.7382C7.18347 20.9101 7.27722 20.7499 7.24987 20.8515C7.10892 20.8474 6.9695 20.8816 6.8464 20.9504C6.7233 21.0191 6.6211 21.12 6.55066 21.2421C6.45725 21.4207 6.43645 21.6284 6.4926 21.8219C6.54874 22.0154 6.67748 22.1798 6.85194 22.2806C7.02639 22.3815 7.23306 22.411 7.42878 22.3631C7.62449 22.3151 7.79412 22.1934 7.90222 22.0234C7.96538 21.9127 8.00053 21.7883 8.00462 21.661C8.0087 21.5337 7.9816 21.4073 7.92566 21.2929C7.8905 21.2109 7.80456 21.4296 8.94909 19.4413C9.00314 19.3563 9.08796 19.2954 9.18581 19.2715C9.28367 19.2475 9.38701 19.2623 9.47423 19.3127C9.56146 19.3631 9.62583 19.4453 9.6539 19.542C9.68198 19.6388 9.67157 19.7427 9.62487 19.8319L9.26159 20.4609C10.1669 20.8354 11.1305 21.0495 12.1092 21.0937C12.1092 21.1601 12.1092 22.2069 12.1092 22.3398C11.8466 22.4295 11.6244 22.6095 11.4821 22.8477C11.3398 23.086 11.2866 23.367 11.3321 23.6407C11.3776 23.9145 11.5188 24.1632 11.7304 24.3427C11.9421 24.5221 12.2106 24.6206 12.4882 24.6206C12.7657 24.6206 13.0342 24.5221 13.2459 24.3427C13.4576 24.1632 13.5987 23.9145 13.6442 23.6407C13.6897 23.367 13.6365 23.086 13.4942 22.8477C13.3519 22.6095 13.1297 22.4295 12.8671 22.3398C12.8671 22.2382 12.8671 21.2734 12.8671 21.0937C14.1103 21.0395 15.3265 20.7128 16.4296 20.1366C16.619 20.5197 16.8371 20.8879 17.0819 21.2382C17.0133 21.357 16.9772 21.4917 16.9772 21.6288C16.9772 21.766 17.0133 21.9007 17.0819 22.0194C17.19 22.1895 17.3596 22.3112 17.5553 22.3591C17.7511 22.4071 17.9577 22.3776 18.1322 22.2767C18.3066 22.1759 18.4354 22.0115 18.4915 21.818C18.5477 21.6245 18.5269 21.4167 18.4335 21.2382C18.3637 21.1172 18.2627 21.0172 18.1411 20.9485C18.0195 20.8798 17.8817 20.8449 17.7421 20.8476C17.7225 20.7694 16.7421 19.0859 16.7186 19.0468C16.6668 18.9567 16.653 18.8496 16.6801 18.7493C16.7072 18.6489 16.773 18.5634 16.8632 18.5116C16.9533 18.4598 17.0603 18.446 17.1607 18.4731C17.261 18.5002 17.3465 18.566 17.3983 18.6562L17.7577 19.2812C18.5236 18.6755 19.1837 17.9469 19.7108 17.1249C19.7499 17.1484 20.7421 17.7343 20.828 17.7577C20.8226 17.9307 20.8747 18.1005 20.9762 18.2406C21.0777 18.3807 21.2229 18.4831 21.3889 18.5318C21.5549 18.5805 21.7324 18.5728 21.8935 18.5097C22.0546 18.4467 22.1903 18.332 22.2791 18.1836C22.368 18.0351 22.4051 17.8614 22.3846 17.6896C22.3641 17.5178 22.2872 17.3577 22.1658 17.2343C22.0445 17.111 21.8857 17.0314 21.7143 17.0081C21.5428 16.9847 21.3685 17.019 21.2186 17.1054C21.1249 17.0155 20.16 16.4726 20.121 16.453C20.6995 15.3501 21.0314 14.1345 21.0936 12.8905C22.5311 12.8905 22.2382 12.8905 22.3397 12.8905C22.4294 13.1531 22.6095 13.3754 22.8477 13.5177C23.0859 13.66 23.3669 13.7131 23.6407 13.6677C23.9145 13.6222 24.1632 13.481 24.3426 13.2693C24.522 13.0576 24.6205 12.7891 24.6205 12.5116C24.6205 12.2341 24.522 11.9656 24.3426 11.7539C24.1632 11.5422 23.9145 11.4011 23.6407 11.3556C23.3669 11.3101 23.0859 11.3633 22.8477 11.5056C22.6095 11.6479 22.4294 11.8701 22.3397 12.1327L22.3319 12.1093ZM19.4921 13.2812C18.5624 19.7812 10.8397 21.5859 7.07019 16.9843C3.64831 12.8788 6.04675 6.43742 11.3671 5.58586C12.4361 5.41107 13.5311 5.48565 14.5666 5.80381C15.6021 6.12196 16.5501 6.67506 17.3366 7.41997C18.1231 8.16488 18.7269 9.08144 19.1008 10.0981C19.4746 11.1148 19.6086 12.2042 19.4921 13.2812Z" fill="url(#paint6_linear_78790_79)"/>
<defs>
<linearGradient id="paint0_linear_78790_79" x1="6.25171" y1="11.3869" x2="12.8906" y2="11.3869" gradientUnits="userSpaceOnUse">
<stop stop-color="#00A0B0"/>
<stop offset="1" stop-color="#00A0B0" stop-opacity="0.75"/>
</linearGradient>
<linearGradient id="paint1_linear_78790_79" x1="8.88062" y1="8.07851" x2="14.4529" y2="8.07851" gradientUnits="userSpaceOnUse">
<stop stop-color="#00A0B0"/>
<stop offset="1" stop-color="#00A0B0" stop-opacity="0.75"/>
</linearGradient>
<linearGradient id="paint2_linear_78790_79" x1="11.478" y1="14.5963" x2="15.6249" y2="14.5963" gradientUnits="userSpaceOnUse">
<stop stop-color="#00A0B0"/>
<stop offset="1" stop-color="#00A0B0" stop-opacity="0.75"/>
</linearGradient>
<linearGradient id="paint3_linear_78790_79" x1="6.46484" y1="14.8361" x2="8.72636" y2="14.8361" gradientUnits="userSpaceOnUse">
<stop stop-color="#00A0B0"/>
<stop offset="1" stop-color="#00A0B0" stop-opacity="0.75"/>
</linearGradient>
<linearGradient id="paint4_linear_78790_79" x1="11.1797" y1="10.5935" x2="18.6914" y2="10.5935" gradientUnits="userSpaceOnUse">
<stop stop-color="#00A0B0"/>
<stop offset="1" stop-color="#00A0B0" stop-opacity="0.75"/>
</linearGradient>
<linearGradient id="paint5_linear_78790_79" x1="15.8787" y1="10.314" x2="18.7265" y2="10.314" gradientUnits="userSpaceOnUse">
<stop stop-color="#00A0B0"/>
<stop offset="1" stop-color="#00A0B0" stop-opacity="0.75"/>
</linearGradient>
<linearGradient id="paint6_linear_78790_79" x1="0.383301" y1="8.4591" x2="24.6205" y2="8.4591" gradientUnits="userSpaceOnUse">
<stop stop-color="#00A0B0"/>
<stop offset="1" stop-color="#00A0B0" stop-opacity="0.75"/>
</linearGradient>
</defs>
</svg>
